<svg width="300" height="300" viewBox="0 0 300 300" fill="none" xmlns="http://www.w3.org/2000/svg">
<rect x="5" y="5" width="290" height="290" stroke="#FF9E00" stroke-width="10"/>
<path d="M193.045 123C191.483 118.218 189.423 113.933 186.866 110.145C184.357 106.31 181.35 103.043 177.847 100.344C174.39 97.6449 170.46 95.5852 166.057 94.1648C161.653 92.7443 156.824 92.0341 151.568 92.0341C142.951 92.0341 135.115 94.2595 128.06 98.7102C121.005 103.161 115.394 109.719 111.227 118.384C107.061 127.048 104.977 137.678 104.977 150.273C104.977 162.867 107.084 173.497 111.298 182.162C115.512 190.827 121.218 197.384 128.415 201.835C135.612 206.286 143.708 208.511 152.705 208.511C161.038 208.511 168.377 206.736 174.722 203.185C181.114 199.586 186.085 194.52 189.636 187.986C193.235 181.404 195.034 173.663 195.034 164.761L200.432 165.898H156.682V150.273H212.08V165.898C212.08 177.877 209.523 188.294 204.409 197.148C199.343 206.002 192.335 212.867 183.386 217.744C174.485 222.574 164.258 224.989 152.705 224.989C139.826 224.989 128.509 221.958 118.756 215.898C109.049 209.837 101.473 201.22 96.0284 190.045C90.6307 178.871 87.9318 165.614 87.9318 150.273C87.9318 138.767 89.4706 128.421 92.5483 119.236C95.6733 110.003 100.077 102.143 105.759 95.6562C111.44 89.1695 118.164 84.1979 125.929 80.7415C133.694 77.285 142.241 75.5568 151.568 75.5568C159.239 75.5568 166.388 76.7169 173.017 79.0369C179.693 81.3097 185.635 84.553 190.844 88.767C196.099 92.9337 200.479 97.929 203.983 103.753C207.487 109.529 209.902 115.945 211.227 123H193.045Z" fill="#FF9E00"/>
</svg>
